<svg class="img-fluid" id="njatoty-logo" xmlns="http://www.w3.org/2000/svg" style="transform: none; transform-origin: 50% 50%; cursor: move;" width="372" height="401" viewBox="0 0 3720 4010"><defs><linearGradient id="lg5bLsj3yPEljlQQ" gradientUnits="userSpaceOnUse" x1="12.903226%" y1="49.37656%" x2="86.55914%" y2="49.37656%"><stop offset="0%" style="stop-color:rgb(218,84,117);"></stop><stop offset="100%" style="stop-color:rgb(131,32,213);"></stop></linearGradient></defs><g id="l7Y8eNxi6r4XsH6s7Yr2SJX" fill="rgb(201,76,133)" style="transform: none;"><g style="transform: none;"><path id="pbiXttOk8" d="M431 3802 c-1 -13 3 -65 9 -115 13 -126 30 -301 40 -427 5 -58 16 -177 25 -265 8 -88 22 -232 30 -320 8 -88 28 -308 45 -490 17 -181 35 -377 40 -435 5 -58 13 -152 19 -210 6 -58 17 -181 26 -275 8 -93 22 -235 30 -315 8 -80 17 -181 20 -225 4 -44 9 -96 13 -115 l8 -34 45 64 c57 82 184 260 265 370 106 146 104 134 92 425 -7 184 -6 259 2 286 15 43 10 83 -10 87 -8 1 -34 -22 -58 -53 -24 -31 -49 -54 -54 -53 -13 5 -21 32 -132 443 -91 335 -108 399 -116 430 -4 17 -18 66 -30 110 -12 44 -26 94 -30 110 -26 97 -82 306 -114 425 -8 30 -23 82 -31 115 -9 33 -23 83 -30 110 -8 28 -32 120 -55 205 -47 179 -48 183 -49 152z" fill="url(#lg5bLsj3yPEljlQQ)"></path><path id="pKF4ZdDcj" d="M1458 1332 c-24 -33 -73 -102 -110 -153 -37 -52 -148 -208 -248 -348 -232 -325 -246 -346 -229 -336 17 10 517 331 610 391 36 24 73 46 82 50 23 8 21 45 -2 51 -15 4 -20 17 -24 71 -6 76 -2 179 7 203 4 9 6 41 4 70 -3 47 -6 54 -25 57 -17 3 -32 -10 -65 -56z" fill="url(#lg5bLsj3yPEljlQQ)"></path></g></g><g id="l2NmnXWdos6mnH3ry5oAhFI" fill="rgb(135,36,209)" style="transform: none;"><g style="transform: none;"><path id="pzCE5dKEp" d="M2704 3436 c-149 -97 -245 -159 -326 -210 -49 -31 -58 -41 -58 -65 0 -16 4 -31 9 -33 5 -1 11 -51 13 -110 3 -98 2 -108 -14 -108 -15 0 -18 -9 -18 -50 0 -58 14 -65 45 -22 11 16 87 122 169 238 82 115 184 256 226 314 81 112 94 130 87 130 -2 0 -62 -38 -133 -84z" fill="url(#lg5bLsj3yPEljlQQ)"></path><path id="pX1FrW0Yp" d="M2910 3364 c-25 -35 -75 -106 -112 -157 -71 -97 -77 -111 -53 -121 13 -5 15 -67 15 -481 0 -430 -2 -475 -16 -475 -11 0 -14 -5 -10 -16 3 -9 9 -28 12 -42 3 -15 12 -47 19 -72 16 -58 33 -120 100 -370 61 -229 82 -304 100 -370 12 -44 32 -118 62 -235 8 -33 21 -80 28 -105 7 -25 20 -74 30 -110 10 -36 23 -85 30 -110 7 -25 20 -74 30 -110 10 -36 23 -85 30 -110 7 -25 30 -109 51 -187 20 -79 39 -141 42 -139 2 3 -3 71 -12 153 -8 81 -22 227 -31 323 -15 164 -21 231 -60 635 -8 88 -22 237 -30 330 -9 94 -20 211 -25 260 -5 50 -14 144 -20 210 -14 171 -28 325 -39 435 -6 52 -17 178 -26 280 -9 102 -23 246 -30 320 -8 74 -17 179 -21 233 -3 53 -9 97 -13 97 -3 -1 -26 -30 -51 -66z" fill="url(#lg5bLsj3yPEljlQQ)"></path></g></g><g id="l7eJQGqp8GBwefEX6MBlr7z" fill="rgb(179,63,158)" style="transform: none;"><g style="transform: none;"><path id="p1HoyelD1u" d="M1575 2710 c-22 -16 -110 -74 -195 -128 -85 -55 -164 -107 -175 -115 -11 -9 82 19 206 60 l226 76 1 69 c2 78 -2 81 -63 38z" fill="url(#lg5bLsj3yPEljlQQ)"></path><path id="phLZq88Mu" d="M1522 2316 c-41 -52 -81 -102 -90 -112 -10 -11 -33 -39 -52 -64 -19 -25 -51 -65 -72 -90 -150 -182 -208 -262 -199 -274 5 -6 6 -18 2 -25 -7 -11 -11 -9 -20 5 -13 24 -14 4 -1 -32 6 -15 13 -132 15 -262 3 -129 7 -237 10 -241 2 -4 -3 -20 -11 -35 -7 -16 -14 -41 -14 -57 0 -15 -4 -31 -10 -34 -5 -3 -10 -10 -10 -16 0 -33 34 10 280 356 36 51 107 150 158 222 l94 130 -2 186 c0 119 3 188 10 192 15 9 13 115 -2 115 -7 0 -5 5 5 11 10 6 17 22 17 39 0 30 -19 80 -29 80 -3 -1 -39 -43 -79 -94z" fill="url(#lg5bLsj3yPEljlQQ)"></path><path id="pUPRO0o7Z" d="M2005 2096 c-56 -78 -213 -295 -309 -431 -36 -49 -101 -141 -146 -204 -95 -132 -100 -142 -71 -134 12 3 21 12 21 21 0 25 13 5 16 -25 2 -17 -5 -36 -17 -49 -17 -18 -19 -26 -10 -43 18 -34 20 -232 2 -259 -14 -23 -14 -24 20 -20 23 2 33 -1 32 -10 -4 -19 4 -15 76 32 36 24 104 68 151 98 260 166 250 159 250 189 0 19 5 29 15 29 11 0 15 13 15 54 l0 54 -50 -19 c-95 -36 -101 -25 -30 60 28 33 50 62 50 65 0 3 11 17 25 32 34 37 34 81 -1 96 l-25 12 3 195 c3 169 5 200 21 223 12 17 17 40 15 65 l-3 38 -50 -69z" fill="url(#lg5bLsj3yPEljlQQ)"></path></g></g><g id="l1eePsOZFfgJQqlAdwJhe6z" fill="rgb(164,53,176)" style="transform: none;"><g style="transform: none;"><path id="phfnycY0t" d="M1900 2919 c-126 -83 -223 -146 -260 -168 -26 -16 -35 -28 -35 -48 0 -20 -6 -28 -25 -33 -39 -9 -37 -36 4 -55 34 -16 38 -16 111 8 56 19 75 22 75 12 0 -7 -43 -66 -96 -131 -55 -68 -93 -125 -91 -134 12 -40 11 -45 -3 -43 -11 2 -16 -8 -18 -37 -2 -30 1 -40 13 -40 18 0 20 -41 3 -58 -8 -8 -12 -62 -11 -174 0 -90 -2 -128 -4 -85 -2 42 -8 77 -13 77 -15 0 -12 -147 3 -157 14 -10 19 -43 5 -43 -5 0 -6 -4 -3 -10 3 -5 0 -10 -7 -11 -7 0 -2 -5 11 -10 18 -7 28 -6 37 3 10 11 183 250 327 453 27 39 65 92 85 118 33 46 34 48 14 54 -20 5 -20 7 -7 26 17 24 20 87 5 87 -6 0 -10 45 -10 115 0 70 4 115 10 115 6 0 10 16 10 35 0 24 -5 35 -14 35 -21 0 -30 20 -17 33 18 18 14 104 -5 111 -19 7 -5 14 -94 -45z" fill="url(#lg5bLsj3yPEljlQQ)"></path><path id="pYy7cgeyy" d="M2294 2503 c-65 -92 -136 -192 -158 -222 -21 -31 -49 -70 -61 -87 -31 -41 -87 -144 -78 -144 4 0 -2 -6 -12 -14 -16 -12 -17 -18 -8 -39 7 -16 12 -83 12 -174 1 -225 1 -227 7 -220 12 11 44 -13 44 -33 0 -11 -2 -20 -5 -20 -12 0 -55 24 -55 32 0 4 -4 8 -10 8 -5 0 -10 -22 -10 -50 0 -37 4 -50 15 -51 8 -1 19 -2 23 -3 5 -1 66 71 137 159 71 88 132 162 135 165 3 3 28 33 55 68 28 35 64 81 81 102 27 34 31 45 25 77 -4 21 -6 99 -5 173 0 74 -3 143 -8 153 -5 11 -5 17 2 17 6 0 10 49 10 135 0 74 -4 135 -8 135 -4 0 -62 -75 -128 -167z" fill="url(#lg5bLsj3yPEljlQQ)"></path><path id="p5d2kwtxa" d="M1547 2143 c-11 -10 -8 -73 3 -73 6 0 10 18 10 40 0 41 -2 45 -13 33z"></path><path id="p13xqMkgtE" d="M2455 1534 c-21 -8 -42 -18 -45 -23 -3 -5 -12 -9 -20 -8 -8 1 -95 -25 -192 -57 -155 -52 -177 -62 -183 -83 -3 -13 -3 -27 -1 -32 3 -4 -8 -5 -25 -3 -33 5 -39 -13 -11 -34 14 -11 15 -16 4 -34 -13 -22 -9 -40 11 -40 7 0 44 22 84 48 40 26 116 75 170 109 274 174 292 188 208 157z" fill="url(#lg5bLsj3yPEljlQQ)"></path><path id="p1CwCABuKw" d="M1927 1473 c-10 -10 -8 -33 3 -33 5 0 14 9 20 20 8 15 8 20 -3 20 -8 0 -17 -3 -20 -7z"></path></g></g><g id="l6VMPkLPzvhrcO7ugj4yrws" fill="rgb(149,44,194)" style="transform: none;"><g style="transform: none;"><path id="pic6tcv0h" d="M2339 3201 c-24 -16 -91 -59 -149 -96 -208 -134 -230 -149 -230 -162 0 -7 5 -13 10 -13 15 0 12 -31 -6 -51 -21 -24 -10 -77 19 -89 12 -5 16 -9 10 -9 -17 -1 -19 -291 -2 -291 6 0 4 -12 -5 -30 -9 -17 -23 -44 -32 -60 -15 -29 -12 -50 7 -50 5 0 8 6 6 13 -1 7 9 12 27 12 26 0 41 17 148 165 192 267 202 282 200 312 -2 24 2 28 22 28 14 0 28 5 31 10 3 6 1 10 -4 10 -17 0 -13 30 4 36 20 8 19 44 -1 44 -9 0 -12 -5 -8 -12 4 -7 3 -8 -4 -4 -18 11 -15 126 3 146 20 22 9 60 -16 55 -10 -2 -19 0 -19 6 0 5 3 9 8 9 9 0 35 40 29 46 -2 2 -24 -9 -48 -25z" fill="url(#lg5bLsj3yPEljlQQ)"></path><path id="pBsl929lG" d="M2601 2931 l-204 -285 0 -106 c-1 -74 -5 -108 -14 -115 -10 -8 -11 -19 -2 -50 12 -42 18 -236 8 -229 -3 2 -6 -34 -5 -79 0 -80 1 -83 21 -73 11 5 74 76 140 158 114 142 145 169 145 130 0 -10 6 -38 14 -63 8 -24 20 -66 27 -93 7 -28 14 -45 17 -38 10 31 22 6 22 -47 0 -64 7 -94 20 -86 5 3 11 1 15 -5 4 -6 11 -5 21 4 19 19 18 36 -2 36 -14 0 -15 8 -9 55 5 41 3 60 -9 77 -13 18 -15 87 -16 502 0 411 -2 483 -15 492 -12 9 -12 14 -1 29 14 19 36 13 36 -11 0 -8 9 -14 20 -14 25 0 25 12 1 34 -11 10 -21 28 -23 41 -2 17 -52 -46 -207 -264z" fill="url(#lg5bLsj3yPEljlQQ)"></path><path id="pfciOBZ50" d="M2350 2450 c0 -11 7 -20 15 -20 13 0 14 4 5 20 -6 11 -13 20 -15 20 -3 0 -5 -9 -5 -20z"></path><path id="pKg9bIhqb" d="M2796 1915 c-3 -8 -1 -25 4 -37 8 -20 9 -18 9 15 1 39 -3 47 -13 22z"></path><path id="pXM8zRnLt" d="M2401 1515 c-19 -6 -37 -18 -39 -26 -3 -8 -10 -18 -16 -22 -20 -14 49 6 76 23 38 23 23 40 -21 25z"></path></g></g></svg>